<svg width="18" height="18" viewBox="0 0 18 18" fill="none" xmlns="http://www.w3.org/2000/svg">
<path d="M8.71814 12.4988C10.493 12.4988 11.9319 11.0904 11.9319 9.35316C11.9319 7.61587 10.493 6.20752 8.71814 6.20752C6.94324 6.20752 5.50439 7.61587 5.50439 9.35316C5.50439 11.0904 6.94324 12.4988 8.71814 12.4988Z" fill="#CACBCF"/>
<path d="M12.2087 0.947266H5.17169C2.37353 0.947266 0.101746 3.17091 0.101746 5.90979V12.7434C0.101746 15.5365 2.37353 17.7602 5.17169 17.7602H12.1533C15.0068 17.7602 17.2786 15.5365 17.2786 12.7977V5.90979C17.2786 3.17091 15.0068 0.947266 12.2087 0.947266ZM8.71789 13.4756C6.36299 13.4756 4.50678 11.6045 4.50678 9.35372C4.50678 7.10296 6.3907 5.23185 8.71789 5.23185C11.0174 5.23185 12.9013 7.10296 12.9013 9.35372C12.9013 11.6045 11.0451 13.4756 8.71789 13.4756ZM14.5359 5.61149C14.2588 5.90979 13.8432 6.07249 13.3723 6.07249C12.9567 6.07249 12.5411 5.90979 12.2087 5.61149C11.9039 5.3132 11.7377 4.93355 11.7377 4.47255C11.7377 4.01155 11.9039 3.65903 12.2087 3.33361C12.5134 3.0082 12.9013 2.8455 13.3723 2.8455C13.7878 2.8455 14.2311 3.0082 14.5359 3.3065C14.8129 3.65903 15.0068 4.06579 15.0068 4.49967C14.9791 4.93355 14.8129 5.3132 14.5359 5.61149Z" fill="#CACBCF"/>
<path d="M13.4005 3.82129C13.0403 3.82129 12.7356 4.11958 12.7356 4.47211C12.7356 4.82464 13.0403 5.12293 13.4005 5.12293C13.7607 5.12293 14.0654 4.82464 14.0654 4.47211C14.0654 4.11958 13.7884 3.82129 13.4005 3.82129Z" fill="#CACBCF"/>
</svg>
