<svg width="38" height="22" viewBox="0 0 38 22" fill="none" xmlns="http://www.w3.org/2000/svg">
<path fill-rule="evenodd" clip-rule="evenodd" d="M8.01993 10.7659L8.23479 9.91777C9.06031 9.66899 10.7453 9.5559 11.0619 10.4493C11.2428 10.9695 10.7227 13.1294 10.6209 13.7627L9.81798 13.774C9.63704 13.5478 9.78405 13.9662 9.65966 13.4121C8.89068 14.1019 7.25095 13.9888 7.37534 12.5979C7.49973 11.2183 8.69844 11.3992 9.99891 11.1956C9.9763 10.3136 8.86806 10.5511 8.00862 10.7546L8.01993 10.7659ZM14.07 10.6302C13.3349 10.6302 13.2218 10.4719 12.5772 10.7546C12.6564 11.5575 13.0748 11.2409 13.6516 11.6254C14.7485 12.3491 13.5724 14.5882 10.9601 13.627L11.1071 12.8128C11.8422 12.9598 12.2154 13.1068 12.7808 12.7901C12.9165 11.648 10.8923 12.3943 11.4577 10.5624C11.763 9.56721 13.1087 9.70291 14.217 9.80469L14.0587 10.6302H14.07ZM2.80671 8.90001L4.53691 8.95655L4.71784 11.6706L5.65645 9.49936C5.97309 8.71907 5.75823 8.8887 7.74852 8.91132L6.85515 13.7627L5.88262 13.7514L6.41412 10.2683L4.97794 13.774L3.81316 13.74C3.77924 13.0615 3.7227 10.6754 3.54176 10.2231L2.95372 13.7514L1.93595 13.74L2.80671 8.90001ZM19.3058 19.2021L19.7808 18.6366C18.8308 18.5122 18.6612 18.7836 18.2315 18.0147L20.414 17.992C20.5497 17.7659 20.7759 17.551 20.889 17.2909C18.4011 17.1213 17.7 17.7546 17.3042 16.6689H21.2961L21.7371 15.9791L16.8066 15.9565L16.5805 15.3798L21.8955 15.3572C22.2008 15.1875 22.2008 14.9953 22.2799 14.6447L17.2477 14.6334C16.343 14.6447 16.2864 14.8483 16.1168 14.0228H22.4496L22.6531 13.3216L20.7985 13.299L20.7081 13.774L19.6451 13.7287L20.3123 9.78207L21.3187 9.91777C21.3187 9.94039 21.3413 10.0196 21.3413 10.0535C21.3413 10.0761 21.3526 10.11 21.3526 10.1213L21.4092 10.3249C21.6919 9.98563 21.8728 9.73684 22.5287 9.75946L22.1895 10.6754C21.9972 10.9242 21.4318 10.6415 21.1943 11.32L22.3026 11.3653C22.427 10.6528 22.5627 10.438 22.7662 9.86123L22.7775 9.52198L15.8454 9.53329L15.8228 9.78207C16.196 9.78207 16.1847 9.71422 16.3995 9.89516L16.2977 10.5624C15.5966 10.732 15.6192 10.3136 15.5514 11.2296C15.6532 11.3992 15.5288 11.3087 15.7436 11.3653L16.1847 11.3766C16.8971 9.05833 19.0231 9.56721 19.5094 10.291C19.7695 10.6754 20.0296 11.942 19.385 12.0438L17.225 12.0664C17.3268 13.2085 18.6386 12.9711 19.4867 12.6884C19.4528 13.1633 19.4867 13.5478 19.0457 13.7061C18.6951 13.8305 17.9601 13.7966 17.5756 13.7061C16.6257 13.4913 16.2186 13.0163 16.1507 11.9872L15.7436 11.9759C15.3704 11.8063 15.6645 11.9759 15.4722 11.5123C15.3139 12.4622 14.8842 13.0728 16.0603 12.9371C15.9924 13.5026 16.0716 13.6948 15.4496 13.7627C13.6402 13.9775 14.2283 12.7675 14.5223 11.1504C14.986 8.57206 14.6241 8.8887 15.9359 8.91132L22.6757 8.92263L22.54 8.2215L16.0263 8.19888L16.1507 7.63346L22.3139 7.59953C22.1555 6.63831 22.1216 6.87579 19.8825 6.87579H16.4674C16.7049 6.05027 16.5805 6.27644 18.7969 6.27644H21.7937L21.477 5.564L17.1346 5.55269L17.4286 4.96465L21.0586 4.94203C20.595 3.99212 20.6176 4.26352 18.0506 4.21829C18.3785 3.40408 18.9552 3.60763 19.9617 3.60763C19.679 3.15529 19.4754 3.18922 19.3058 2.80473C18.8874 2.58987 18.5142 2.20538 18.0958 1.91136C14.8955 -0.350344 10.553 -0.587822 7.07001 1.10845C3.93756 2.62379 0.861647 6.12943 0.895572 10.9808C0.940806 17.9129 7.02478 22.9678 13.9117 21.7917C17.1459 21.2376 17.9601 19.9258 19.2945 19.1907L19.3058 19.2021Z" fill="#8D99A3"/>
<path fill-rule="evenodd" clip-rule="evenodd" d="M26.6902 9.88504C30.1958 9.17261 29.6191 10.9028 29.3364 12.3051C29.2459 12.7235 29.2459 13.549 28.9179 13.7752C28.8388 13.7752 28.3751 13.7865 28.3299 13.7639C28.0133 13.6395 28.1603 14.0126 28.115 13.4359C27.1651 13.9787 25.6611 14.1031 25.842 12.5878C25.989 11.3778 27.2104 11.1855 28.4543 11.2421C28.4091 10.3487 27.5948 10.4957 26.464 10.7784L26.7015 9.88504H26.6902ZM30.1506 9.78327L31.0892 9.79457C31.1005 9.81719 31.1118 9.85112 31.1118 9.87373L31.2588 10.2921C31.4284 10.0321 31.7451 9.80588 32.2426 9.79457L32.1069 10.5975L31.6433 10.7784C30.716 11.0837 30.7725 12.2485 30.5237 13.7752H29.4721L30.1506 9.78327ZM35.1376 8.92382H36.0988L35.2733 13.7865C34.199 13.7978 34.4591 13.8543 34.1198 13.4472C33.4187 14.4876 31.3153 13.5264 31.9599 11.3778C32.4349 9.77196 34.0407 9.34223 34.8323 10.2921L35.1489 8.91251L35.1376 8.92382ZM19.317 2.81723C19.4867 3.20171 19.7015 3.16779 19.9729 3.62013C18.9665 3.62013 18.3897 3.40527 18.0618 4.23079C20.6288 4.27602 20.6062 4.00462 21.0698 4.95453L17.4398 4.97715L17.1458 5.56519L21.4883 5.5765L21.8049 6.28894H18.8081C16.603 6.28894 16.7161 6.07408 16.4786 6.88829H19.8938C22.1328 6.88829 22.1668 6.65081 22.3251 7.61203L16.162 7.64596L16.0376 8.21138L22.5513 8.234L22.687 8.93513L15.9471 8.92382L15.8566 9.55709L22.7887 9.54579L22.7774 9.88504C23.2976 9.38747 23.2071 9.12737 24.1797 8.84466C24.9826 8.61849 25.4915 8.78812 26.2831 8.95774L26.1134 9.99813C24.7564 9.59102 23.8743 9.6928 23.5577 11.0951C23.2071 12.5991 24.3945 13.1645 25.6498 12.5652C25.5367 13.6621 25.3558 13.9335 24.0666 13.7639C23.1732 13.6508 22.9018 13.2211 22.506 12.6896H20.8889L20.7984 13.3115L22.653 13.3341L22.4495 14.0353H16.1167C16.2863 14.8608 16.3429 14.6572 17.2476 14.6459L22.2799 14.6572C22.1894 14.9965 22.2007 15.2 21.8954 15.3697L16.5804 15.3923L16.8065 15.969L21.737 15.9916L21.296 16.6815H17.3041C17.6999 17.7558 18.401 17.1338 20.8889 17.3034C20.7758 17.5635 20.5497 17.7784 20.4139 18.0045L18.2314 18.0272C18.6498 18.7848 18.8308 18.5247 19.7807 18.6491L19.3057 19.2146C20.9228 20.402 22.1781 21.3971 24.7903 21.8494C27.1651 22.2565 29.6417 21.8042 31.5528 20.8656C39.8306 16.7832 39.6045 5.02238 31.485 1.13226C28.5674 -0.258688 24.6999 -0.383082 21.6805 1.20011C20.2217 1.95778 19.8711 2.50059 19.3283 2.82853L19.317 2.81723Z" fill="#A6AEB6"/>
<path fill-rule="evenodd" clip-rule="evenodd" d="M1.93534 13.7525L2.95313 13.7638L3.54119 10.2354C3.72213 10.6878 3.77867 13.074 3.8126 13.7525L4.97741 13.7864L6.41362 10.2807L5.88211 13.7638L6.85467 13.7751L7.74806 8.92363C5.75771 8.90101 5.97258 8.73138 5.65594 9.51168L4.71731 11.683L4.53636 8.96886L2.80612 8.91232L1.93534 13.7525ZM33.4417 12.8591C32.5935 11.9883 33.3173 10.5408 34.1089 10.733C34.8892 10.9253 34.7422 12.8365 33.4417 12.8591ZM34.8213 10.292C34.0297 9.34205 32.4352 9.77179 31.9489 11.3776C31.3043 13.515 33.4077 14.4876 34.1089 13.4471C34.4481 13.8543 34.188 13.7864 35.2624 13.7864L36.0879 8.92363H35.1267L34.81 10.3033L34.8213 10.292ZM27.0522 12.8704C26.8939 12.1127 27.595 11.8187 28.2622 11.9544C28.2961 12.7234 27.7533 13.1418 27.0522 12.8704ZM26.6903 9.89618L26.4528 10.7896C27.5837 10.5182 28.4092 10.3712 28.4432 11.2532C27.1992 11.1967 25.9778 11.3889 25.8308 12.599C25.6386 14.1144 27.154 13.99 28.1039 13.4471C28.1491 14.0239 28.0021 13.6507 28.3188 13.7751C28.364 13.7977 28.8277 13.7864 28.9068 13.7864C29.2461 13.5715 29.2461 12.7347 29.3252 12.3163C29.6193 10.9027 30.1847 9.18373 26.679 9.89618H26.6903ZM9.81757 11.9205C9.84019 12.305 9.77234 12.599 9.52354 12.7912C9.35391 12.9156 8.84502 13.0626 8.64146 12.8704C8.00817 12.2936 9.19559 11.9091 9.80626 11.9205H9.81757ZM8.01947 10.767C8.87894 10.5634 9.9872 10.3259 10.0098 11.208C8.70931 11.4116 7.51058 11.2306 7.38618 12.6103C7.25048 14.0013 8.89025 14.1144 9.67056 13.4245C9.79496 13.9787 9.64794 13.5602 9.82888 13.7864L10.6318 13.7751C10.7336 13.1305 11.2538 10.9818 11.0728 10.4616C10.7562 9.55692 9.0825 9.67001 8.24565 9.93011L8.03078 10.7783L8.01947 10.767ZM17.3945 11.3324C17.5415 10.7557 17.7903 10.5182 18.4575 10.6086C18.695 10.9479 18.695 10.8461 18.7402 11.3324H17.3945ZM16.1957 11.3889L16.1505 11.9996C16.2184 13.0287 16.6368 13.4924 17.5754 13.7186C17.9599 13.809 18.695 13.843 19.0456 13.7186C19.4866 13.5715 19.4527 13.1757 19.4866 12.7008C18.6384 12.9835 17.3266 13.221 17.2248 12.0788L19.3848 12.0562C20.0294 11.9544 19.7693 10.6991 19.5092 10.3033C19.0229 9.57954 16.8969 9.07064 16.1844 11.3889H16.1957ZM22.7775 9.88487C22.5739 10.4616 22.4382 10.6765 22.3138 11.3889V12.0109L22.506 12.7008C22.9019 13.2323 23.1733 13.662 24.0667 13.7751C25.3559 13.9447 25.5368 13.6733 25.6499 12.5764C24.3833 13.1757 23.2072 12.6103 23.5578 11.1062C23.8857 9.69262 24.7678 9.60215 26.1136 10.0093L26.2832 8.96886C25.4916 8.81054 24.9827 8.64091 24.1797 8.85577C23.2072 9.12718 23.2977 9.3986 22.7775 9.89618V9.88487ZM14.2167 9.80571C13.1084 9.71524 11.7627 9.56823 11.4573 10.5634C10.8919 12.3954 12.9049 11.649 12.7805 12.7912C12.2037 13.1079 11.8418 12.9609 11.1068 12.8139L10.9598 13.6281C13.5721 14.5893 14.7369 12.3615 13.6513 11.6264C13.0745 11.2419 12.6561 11.5699 12.5769 10.7557C13.2215 10.4616 13.3233 10.6313 14.0697 10.6313L14.228 9.80571H14.2167Z" fill="#FEFEFE"/>
<path fill-rule="evenodd" clip-rule="evenodd" d="M15.4835 11.525L15.5627 11.2536C15.6305 10.3376 15.6079 10.756 16.309 10.5864L16.4108 9.91921C16.1959 9.73828 16.2073 9.80613 15.8341 9.80613L15.8567 9.55734L15.9472 8.92406C14.6354 8.90145 14.9972 8.58481 14.5336 11.1631C14.2396 12.7803 13.6515 13.9903 15.4609 13.7754C16.0715 13.7076 16.0037 13.5153 16.0715 12.9499C14.9068 13.0856 15.3365 12.4749 15.4835 11.525ZM20.7985 13.3231L20.889 12.7011L21.0021 12.0226L21.2056 11.3441C21.4544 10.6656 22.0198 10.9483 22.2008 10.6995L22.54 9.78351C21.8728 9.76089 21.6919 10.0097 21.4205 10.3489L21.3639 10.1454C21.3639 10.1341 21.3526 10.1001 21.3526 10.0775C21.3526 10.0549 21.33 9.96445 21.33 9.94183L20.3235 9.80613L19.6563 13.7528L20.7193 13.798L20.8098 13.3231H20.7985ZM29.4721 13.7754H30.5238C30.7726 12.2488 30.7161 11.084 31.6434 10.7787L32.107 10.5977L32.2427 9.79482C31.7451 9.80613 31.4285 10.0323 31.2589 10.2924L31.1119 9.87398C31.1005 9.85136 31.1005 9.81744 31.0892 9.79482L30.1506 9.78351L29.4721 13.7754Z" fill="#FEFEFE"/>
<path fill-rule="evenodd" clip-rule="evenodd" d="M33.4399 12.8543C34.7517 12.8317 34.8987 10.9206 34.1071 10.7283C33.3042 10.5361 32.5918 11.9836 33.4399 12.8543Z" fill="#A6AEB6"/>
<path fill-rule="evenodd" clip-rule="evenodd" d="M9.81787 11.9187C9.20721 11.9074 8.01982 12.2919 8.6531 12.8686C8.85665 13.0495 9.36553 12.9025 9.53516 12.7895C9.78395 12.6085 9.84049 12.3032 9.82918 11.9187H9.81787ZM20.8889 12.6877L22.506 12.699L22.3138 12.0092H21.002L20.8889 12.6877Z" fill="#8D99A3"/>
<path fill-rule="evenodd" clip-rule="evenodd" d="M27.0523 12.8719C27.7647 13.132 28.2962 12.7249 28.2623 11.956C27.5838 11.8316 26.894 12.1256 27.0523 12.8719ZM21.0023 12.0125H22.314V11.3905L21.2058 11.334L21.0023 12.0125Z" fill="#A6AEB6"/>
<path fill-rule="evenodd" clip-rule="evenodd" d="M17.3948 11.3313H18.7405C18.7066 10.8563 18.6953 10.9468 18.4578 10.6076C17.7906 10.5171 17.5418 10.7546 17.3948 11.3313Z" fill="#8D99A3"/>
<path fill-rule="evenodd" clip-rule="evenodd" d="M15.4835 11.5283C15.6757 11.992 15.3817 11.8223 15.7549 11.992L16.162 12.0033L16.2072 11.3926L15.7662 11.3813C15.54 11.3361 15.6644 11.4152 15.574 11.2456L15.4948 11.517L15.4835 11.5283Z" fill="#8D99A3"/>
</svg>
