<svg width="19" height="15" viewBox="0 0 19 15" fill="none" xmlns="http://www.w3.org/2000/svg">
<path d="M16.1621 3.1781L17.2299 1.93225C17.539 1.59483 17.6233 1.33528 17.6514 1.2055C16.8084 1.6727 16.0216 1.82843 15.5159 1.82843H15.3192L15.2068 1.72461C14.5324 1.17955 13.6894 0.894043 12.7902 0.894043C10.8232 0.894043 9.27777 2.39944 9.27777 4.13844C9.27777 4.24226 9.27777 4.39799 9.30587 4.50181L9.39016 5.02091L8.80007 4.99496C5.20334 4.89114 2.25289 2.03607 1.7752 1.54292C0.988416 2.84068 1.43801 4.08653 1.9157 4.86518L2.87108 6.31867L1.35371 5.54002C1.38181 6.63013 1.8314 7.48665 2.70248 8.10958L3.46117 8.62868L2.70248 8.91419C3.18018 10.2379 4.24796 10.783 5.03474 10.9906L6.07442 11.2502L5.09094 11.8731C3.51737 12.9113 1.55041 12.8334 0.679321 12.7556C2.44959 13.8976 4.55705 14.1571 6.01822 14.1571C7.1141 14.1571 7.92899 14.0533 8.12569 13.9754C15.9935 12.2624 16.3588 5.77361 16.3588 4.47586V4.29417L16.5274 4.19035C17.4828 3.35978 17.8762 2.91855 18.101 2.65899C18.0167 2.68495 17.9043 2.73686 17.7919 2.76281L16.1621 3.1781Z" fill="#CACBCF"/>
</svg>
