<svg width="58" height="19" viewBox="0 0 58 19" fill="none" xmlns="http://www.w3.org/2000/svg">
<path fill-rule="evenodd" clip-rule="evenodd" d="M41.2872 12.6458C41.2987 9.72685 38.8857 8.4666 37.0122 7.48736C35.8265 6.86812 34.8574 6.36166 34.8574 5.61979C34.8574 4.98747 35.4711 4.31797 36.7772 4.1451C38.3299 3.99191 39.8965 4.26321 41.3057 4.93062L42.1127 1.10145C40.7383 0.587248 39.2817 0.321395 37.8135 0.315918C33.2838 0.315918 30.1355 2.7283 30.1355 6.17454C30.1355 8.72145 32.42 10.1382 34.1476 10.9806C35.8751 11.8231 36.5467 12.4161 36.5271 13.1819C36.5271 14.369 35.1075 14.905 33.7829 14.9246C32.1491 14.9455 30.5373 14.5505 29.0992 13.7759L28.2736 17.605C29.9004 18.2385 31.6338 18.557 33.3799 18.5427C38.1967 18.5427 41.3647 16.1686 41.3833 12.4926L41.2872 12.6458ZM28.8305 0.623351L24.9921 18.3327H20.386L24.2244 0.623351H28.8305ZM48.1396 12.1097L50.5573 5.46672L51.9595 12.1097H48.1396ZM57.5255 18.3906H53.2644L52.7075 15.7485H46.9307L45.9894 18.3906H41.1528L48.0435 1.98215C48.3607 1.201 49.1168 0.687892 49.9633 0.680238H53.8017L57.5255 18.3906ZM14.9149 18.2747L22.3625 0.565364H17.372L12.5934 12.6075L10.6736 2.36507C10.5034 1.32353 9.60022 0.560987 8.54306 0.565364H0.731901L0.616104 1.08175C2.18274 1.38808 3.70535 1.88916 5.14577 2.57511C5.75946 2.86285 6.17515 3.45256 6.23999 4.12646L9.9059 18.2747H14.9149Z" fill="#8D99A3"/>
</svg>
